<?xml version="1.0" encoding="UTF-8"?>
<svg id="Layer_1" xmlns="http://www.w3.org/2000/svg" version="1.1" viewBox="0 0 1080 1080">
  <!-- Generator: Adobe Illustrator 30.1.0, SVG Export Plug-In . SVG Version: 2.1.1 Build 136)  -->
  <defs>
    <style>
      .st0 {
        fill: #262626;
      }
    </style>
  </defs>
  <path class="st0" d="M301.8,459.8c-11.7,0-22.7,2.8-32.4,7.8v-43.4c0-10.7-8.7-19.4-19.4-19.4s-19.4,8.7-19.4,19.4v191.2h38.7v-84.5c0-17.9,14.5-32.4,32.4-32.4s32.4,14.5,32.4,32.4v84.5h38.7v-84.5c0-39.3-31.8-71.1-71.1-71.1Z"/>
  <path class="st0" d="M690.8,459.8h-38.7v84.5c0,17.9-14.5,32.4-32.4,32.4s-32.4-14.5-32.4-32.4v-63.3s0,0,0,0v-21.2h-38.7v84.5c0,27.6,15.7,51.5,38.7,63.3,9.7,5,20.7,7.8,32.4,7.8s30.1-5.1,41.9-13.6c7.2,8.4,17.8,13.6,29.7,13.6h93.4c21.6,0,46.8-15.2,56.4-39.2h-140.4c-5.4,0-9.9-4.4-9.9-9.9v-106.6Z"/>
  <path class="st0" d="M538.3,537.6c0-43-34.8-77.8-77.8-77.8s-79.8,36.9-77.7,81.5c1.9,39.9,34.3,72.2,74.1,74,6.6.3,13-.2,19.1-1.5,12.7-2.6,18.9-17,12.4-28.1l-.4-.7c-4.1-7-12.2-10.5-20.2-9-3.3.6-6.8.8-10.4.6-19.2-1.5-34.6-17.1-35.9-36.2-1.6-22.8,16.5-41.8,39-41.8s39.1,17.5,39.1,39.1,0,.6,0,.8c0,0,0,0,0,0v117.2c0,10.7,8.7,19.4,19.4,19.4s19.4-8.7,19.4-19.4v-118.1h0Z"/>
  <path class="st0" d="M847.5,519.7c-7.5-35.3-37.8-61.6-74.1-61.6s-75.9,35.2-75.9,78.7,1.9,20,5.3,29h44.7c-7.5-7.2-12.2-17.6-12.2-29,0-21.8,17.1-39.5,38.1-39.5s28.3,9.2,34.4,22.5h-42.9c-10.1,0-18.3,8.2-18.3,18.3h0c0,10.1,8.2,18.3,18.3,18.3h64.7c10.8,0,19.7-8.6,19.7-19.4,0,0,0-.1,0-.2,0-5.9-.6-11.6-1.8-17.1Z"/>
</svg>